<?xml version="1.0" standalone="no"?>
<!DOCTYPE svg PUBLIC "-//W3C//DTD SVG 20010904//EN"
 "http://www.w3.org/TR/2001/REC-SVG-20010904/DTD/svg10.dtd">
<svg version="1.0" xmlns="http://www.w3.org/2000/svg"
 width="700.000000pt" height="700.000000pt" viewBox="0 0 700.000000 700.000000"
 preserveAspectRatio="xMidYMid meet">
<metadata>
Created by potrace 1.11, written by Peter Selinger 2001-2013
</metadata>
<g transform="translate(0.000000,700.000000) scale(0.100000,-0.100000)"
fill="#000000" stroke="none">
<path d="M1141 3500 l0 -3239 730 -1 729 0 0 927 c0 511 0 972 0 1026 0 71 3
97 13 97 6 0 226 -305 487 -677 261 -372 567 -808 679 -967 113 -160 222 -317
244 -348 l40 -58 900 0 c718 0 897 3 890 12 -35 45 -482 637 -758 1003 -137
182 -303 402 -370 490 -67 88 -197 261 -290 385 -93 124 -171 227 -174 230
-13 11 -152 202 -157 214 -3 8 34 58 87 117 50 57 103 118 118 134 40 46 162
185 197 225 18 19 121 136 229 260 109 124 212 241 229 260 17 19 112 127 211
240 99 113 182 207 185 210 6 6 111 125 260 295 62 72 127 145 144 162 l30 33
-882 0 -881 0 -60 -72 c-53 -64 -600 -738 -684 -842 -18 -22 -84 -104 -147
-181 -63 -78 -131 -161 -150 -185 -96 -119 -215 -266 -220 -270 -3 -3 -37 -44
-74 -92 -67 -86 -96 -106 -96 -70 -1 9 -1 896 -1 1970 l0 1952 -729 0 -729 0
0 -3240z"/>
</g>
</svg>
