<?xml version="1.0" encoding="UTF-8"?><!DOCTYPE svg PUBLIC "-//W3C//DTD SVG 1.1//EN" "http://www.w3.org/Graphics/SVG/1.1/DTD/svg11.dtd"><svg xmlns="http://www.w3.org/2000/svg"><symbol id="icon-arrow-back" viewBox="0 0 28 22">
    <g fill="none" fill-rule="evenodd" stroke="#64636a" stroke-width="2.673">
        <path d="M11.439 2.148L2.677 10.91" stroke-linecap="square"/>
        <path d="M2.677 10.91l8.762 8.762" stroke-linecap="square"/>
        <path d="M2.677 10.91h25"/>
    </g>
</symbol><symbol id="icon-arrow-right" viewBox="0 0 18 32">
    <path d="M2.1.525L.64 1.985 14.755 16.1.64 30.215l1.46 1.46L17.675 16.1z"/>
</symbol><symbol id="icon-logo-kulturea" viewBox="0 0 128 25">
    <path d="M17.602 24.119h-6.66l-5.348-7.607h-.098v7.607H.082V.058h5.414v14.641h.098l5.217-6.429h6.529l-6.3 7.16zm12.336 0v-2.196h-.066c-.197.361-.454.7-.771 1.018s-.689.594-1.116.828c-.427.233-.897.424-1.411.573s-1.055.223-1.624.223c-1.094 0-2.018-.191-2.772-.573-.755-.382-1.367-.875-1.837-1.48s-.809-1.294-1.017-2.069-.312-1.565-.312-2.371V8.269h5.414v8.593c0 .446.033.87.098 1.273.066.403.191.764.377 1.082s.432.568.738.748.711.271 1.214.271c.941 0 1.657-.339 2.149-1.018s.738-1.475.738-2.387V8.269h5.381v15.85zm9.449 0V.058h5.446v24.061zm15.552-11.935v6.047c0 .743.148 1.3.443 1.671s.826.557 1.591.557c.262 0 .541-.021.837-.064a2.92 2.92 0 0 0 .738-.191l.066 3.819c-.372.127-.842.239-1.411.334s-1.137.143-1.706.143c-1.094 0-2.012-.133-2.756-.398s-1.34-.647-1.788-1.146-.771-1.093-.968-1.782c-.197-.69-.295-1.459-.295-2.307v-6.684h-2.625V8.269h2.592V4.1h5.282v4.169h3.839v3.915zm17.126 11.935v-2.196H72c-.197.361-.454.7-.771 1.018s-.689.594-1.116.828c-.427.233-.897.424-1.411.573s-1.055.223-1.624.223c-1.094 0-2.018-.191-2.772-.573-.755-.382-1.367-.875-1.837-1.48s-.809-1.294-1.017-2.069a9.1 9.1 0 0 1-.312-2.371V8.269h5.414v8.593c0 .446.033.87.098 1.273.066.403.191.764.377 1.082s.432.568.738.748.711.271 1.214.271c.941 0 1.657-.339 2.149-1.018s.738-1.475.738-2.387V8.269h5.381v15.85zm19.981-11.585a4.262 4.262 0 0 0-.705-.127 7.4 7.4 0 0 0-.673-.032c-.722 0-1.329.127-1.821.382s-.886.562-1.181.923-.509.753-.64 1.178c-.131.424-.197.796-.197 1.114v8.148h-5.381V8.269h5.184v2.292h.066c.416-.806 1.006-1.464 1.772-1.973s1.651-.764 2.658-.764c.219 0 .432.011.64.032s.377.053.509.095zm13.058 1.846c0-.828-.268-1.538-.804-2.132s-1.34-.891-2.411-.891c-.525 0-1.006.08-1.444.239-.437.159-.82.377-1.148.652a3.225 3.225 0 0 0-.787.971 2.777 2.777 0 0 0-.328 1.162h6.922zm4.954 2.005v.637c0 .212-.011.414-.033.605H98.181c.044.446.18.849.41 1.209.23.361.525.674.886.939s.766.472 1.214.621.913.223 1.394.223c.853 0 1.575-.154 2.165-.461a4.256 4.256 0 0 0 1.444-1.194l3.74 2.292c-.766 1.082-1.777 1.915-3.035 2.498-1.258.584-2.718.875-4.38.875-1.225 0-2.384-.186-3.478-.557s-2.051-.912-2.871-1.623-1.465-1.586-1.936-2.626c-.47-1.04-.705-2.228-.705-3.565 0-1.294.23-2.467.689-3.517s1.083-1.941 1.87-2.673 1.717-1.3 2.789-1.703 2.231-.605 3.478-.605c1.203 0 2.308.196 3.314.589s1.87.96 2.592 1.703 1.285 1.644 1.69 2.705.607 2.27.607 3.628zm12.796.828h-.689c-.591 0-1.187.027-1.788.08s-1.137.154-1.608.302c-.47.149-.859.366-1.165.652s-.459.663-.459 1.13c0 .297.071.552.213.764s.323.382.541.509.47.217.755.271c.284.053.558.08.82.08 1.094 0 1.93-.292 2.51-.875.58-.584.869-1.374.869-2.371v-.542zm-9.876-6.78c.962-.891 2.083-1.56 3.363-2.005s2.586-.668 3.921-.668c1.378 0 2.543.164 3.494.493s1.722.838 2.313 1.528 1.023 1.56 1.296 2.61.41 2.297.41 3.74v7.989h-4.921v-1.687h-.098c-.416.658-1.044 1.167-1.887 1.528a6.878 6.878 0 0 1-2.74.541c-.656 0-1.334-.085-2.034-.255s-1.34-.446-1.919-.828c-.58-.382-1.055-.891-1.427-1.528s-.558-1.422-.558-2.355c0-1.146.323-2.069.968-2.769s1.476-1.241 2.493-1.623 2.149-.637 3.396-.764 2.461-.191 3.642-.191v-.255c0-.785-.284-1.363-.853-1.735s-1.269-.557-2.1-.557c-.766 0-1.504.159-2.215.477s-1.318.7-1.821 1.146z" fill="#64636a"/>
    <path d="M17.602 24.119h-6.66l-5.348-7.607h-.098v-1.814h.098l5.217-6.429h6.529l-6.3 7.161z" fill="#ffce54"/>
</symbol><symbol id="icon-quote" viewBox="0 0 290 214">
    <path d="M238.072 0c-39.945 33.663-98.265 106.6-98.265 214h99.064c0-79.348 14.38-131.446 51.129-181.94zM98.264 0l51.929 32.06c-36.75 50.494-51.13 102.592-51.13 181.94H0C0 106.6 58.32 33.663 98.264 0z" opacity=".048"/>
</symbol></svg>